<mxfile host="Electron" agent="Mozilla/5.0 (Windows NT 10.0; Win64; x64) AppleWebKit/537.36 (KHTML, like Gecko) draw.io/26.2.2 Chrome/134.0.6998.178 Electron/35.1.2 Safari/537.36" version="26.2.2" pages="4">
  <diagram name="寫日記活動圖" id="e7e014a7-5840-1c2e-5031-d8a46d1fe8dd">
    <mxGraphModel dx="1138" dy="478" grid="1" gridSize="10" guides="1" tooltips="1" connect="1" arrows="1" fold="1" page="1" pageScale="1" pageWidth="1169" pageHeight="826" background="none" math="0" shadow="0">
      <root>
        <mxCell id="0" />
        <mxCell id="1" parent="0" />
        <mxCell id="qAcYdrMk_56uutIM6bKp-6" value="" style="ellipse;shape=startState;fillColor=#000000;strokeColor=#000000;" parent="1" vertex="1">
          <mxGeometry x="370" y="964" width="30" height="30" as="geometry" />
        </mxCell>
        <mxCell id="qAcYdrMk_56uutIM6bKp-7" value="" style="edgeStyle=elbowEdgeStyle;elbow=horizontal;verticalAlign=bottom;endArrow=open;endSize=8;strokeColor=#000000;endFill=1;rounded=0;fillColor=#000000;" parent="1" source="qAcYdrMk_56uutIM6bKp-6" edge="1">
          <mxGeometry x="100" y="40" as="geometry">
            <mxPoint x="385.64285714285734" y="1034" as="targetPoint" />
          </mxGeometry>
        </mxCell>
        <mxCell id="qAcYdrMk_56uutIM6bKp-8" value="" style="endArrow=open;strokeColor=#000000;endFill=1;rounded=0" parent="1" source="qAcYdrMk_56uutIM6bKp-41" edge="1">
          <mxGeometry relative="1" as="geometry">
            <mxPoint x="385" y="1076" as="sourcePoint" />
            <mxPoint x="384.75" y="1136" as="targetPoint" />
          </mxGeometry>
        </mxCell>
        <mxCell id="qAcYdrMk_56uutIM6bKp-9" value="" style="edgeStyle=orthogonalEdgeStyle;rounded=0;orthogonalLoop=1;jettySize=auto;html=1;" parent="1" edge="1">
          <mxGeometry relative="1" as="geometry">
            <mxPoint x="384.75" y="1086" as="sourcePoint" />
            <mxPoint x="384.75" y="1136" as="targetPoint" />
          </mxGeometry>
        </mxCell>
        <mxCell id="qAcYdrMk_56uutIM6bKp-38" value="" style="edgeStyle=elbowEdgeStyle;elbow=horizontal;verticalAlign=bottom;endArrow=open;endSize=8;strokeColor=#000000;endFill=1;rounded=0;fillColor=#000000;exitX=1;exitY=0.5;exitDx=0;exitDy=0;entryX=0;entryY=0.5;entryDx=0;entryDy=0;" parent="1" target="qAcYdrMk_56uutIM6bKp-12" edge="1" source="R8Abtqu-zcnTd_QBsA_M-8">
          <mxGeometry x="100" y="40" as="geometry">
            <mxPoint x="537.75" y="1054" as="targetPoint" />
            <mxPoint x="439.75" y="1161" as="sourcePoint" />
          </mxGeometry>
        </mxCell>
        <mxCell id="qAcYdrMk_56uutIM6bKp-42" value="" style="endArrow=open;strokeColor=#000000;endFill=1;rounded=0" parent="1" target="qAcYdrMk_56uutIM6bKp-41" edge="1">
          <mxGeometry relative="1" as="geometry">
            <mxPoint x="385" y="1076" as="sourcePoint" />
            <mxPoint x="384.75" y="1136" as="targetPoint" />
          </mxGeometry>
        </mxCell>
        <mxCell id="qAcYdrMk_56uutIM6bKp-66" value="使用者" style="swimlane;whiteSpace=wrap;startSize=30;fontSize=20;" parent="1" vertex="1">
          <mxGeometry x="270" y="930" width="270" height="1070" as="geometry" />
        </mxCell>
        <mxCell id="KruCElbM7OjdMXR9dvU4-1" value="選擇情緒標籤" style="fontSize=20;" vertex="1" parent="qAcYdrMk_56uutIM6bKp-66">
          <mxGeometry x="50" y="306" width="130" height="50" as="geometry" />
        </mxCell>
        <mxCell id="KruCElbM7OjdMXR9dvU4-4" value="" style="edgeStyle=orthogonalEdgeStyle;rounded=0;orthogonalLoop=1;jettySize=auto;html=1;" edge="1" parent="qAcYdrMk_56uutIM6bKp-66">
          <mxGeometry relative="1" as="geometry">
            <mxPoint x="114.70000000000002" y="256" as="sourcePoint" />
            <mxPoint x="114.70000000000002" y="306" as="targetPoint" />
          </mxGeometry>
        </mxCell>
        <mxCell id="qAcYdrMk_56uutIM6bKp-88" value="" style="ellipse;html=1;shape=endState;fillColor=#000000;strokeColor=#000000;" parent="qAcYdrMk_56uutIM6bKp-66" vertex="1">
          <mxGeometry x="110" y="850" width="30" height="30" as="geometry" />
        </mxCell>
        <mxCell id="qAcYdrMk_56uutIM6bKp-43" value="輸入日記內容" style="fontSize=20;" parent="qAcYdrMk_56uutIM6bKp-66" vertex="1">
          <mxGeometry x="50" y="206" width="130" height="50" as="geometry" />
        </mxCell>
        <mxCell id="qAcYdrMk_56uutIM6bKp-41" value="點選寫今日日記" style="fontSize=20;" parent="qAcYdrMk_56uutIM6bKp-66" vertex="1">
          <mxGeometry x="40" y="105" width="150" height="50" as="geometry" />
        </mxCell>
        <mxCell id="R8Abtqu-zcnTd_QBsA_M-8" value="按下儲存日記" style="fontSize=20;" vertex="1" parent="qAcYdrMk_56uutIM6bKp-66">
          <mxGeometry x="50" y="406" width="130" height="50" as="geometry" />
        </mxCell>
        <mxCell id="R8Abtqu-zcnTd_QBsA_M-9" value="" style="edgeStyle=orthogonalEdgeStyle;rounded=0;orthogonalLoop=1;jettySize=auto;html=1;" edge="1" parent="qAcYdrMk_56uutIM6bKp-66">
          <mxGeometry relative="1" as="geometry">
            <mxPoint x="114.70000000000005" y="356" as="sourcePoint" />
            <mxPoint x="114.70000000000005" y="406" as="targetPoint" />
          </mxGeometry>
        </mxCell>
        <mxCell id="qAcYdrMk_56uutIM6bKp-80" value="系統" style="swimlane;whiteSpace=wrap;startSize=30;fontSize=20;" parent="1" vertex="1">
          <mxGeometry x="540" y="930" width="420" height="1070" as="geometry" />
        </mxCell>
        <mxCell id="qAcYdrMk_56uutIM6bKp-12" value="接收日記文字" style="fontSize=20;" parent="qAcYdrMk_56uutIM6bKp-80" vertex="1">
          <mxGeometry x="80" y="406" width="140" height="50" as="geometry" />
        </mxCell>
        <mxCell id="KruCElbM7OjdMXR9dvU4-5" value="是否為空" style="fontSize=20;" vertex="1" parent="qAcYdrMk_56uutIM6bKp-80">
          <mxGeometry x="80" y="490" width="140" height="50" as="geometry" />
        </mxCell>
        <mxCell id="KruCElbM7OjdMXR9dvU4-6" value="" style="edgeStyle=orthogonalEdgeStyle;rounded=0;orthogonalLoop=1;jettySize=auto;html=1;exitX=0.5;exitY=1;exitDx=0;exitDy=0;entryX=0.5;entryY=0;entryDx=0;entryDy=0;" edge="1" parent="qAcYdrMk_56uutIM6bKp-80" source="qAcYdrMk_56uutIM6bKp-12" target="KruCElbM7OjdMXR9dvU4-5">
          <mxGeometry relative="1" as="geometry">
            <mxPoint x="-65.19999999999999" y="366" as="sourcePoint" />
            <mxPoint x="-65.19999999999999" y="416" as="targetPoint" />
          </mxGeometry>
        </mxCell>
        <mxCell id="qAcYdrMk_56uutIM6bKp-14" value="" style="endArrow=classic;html=1;rounded=0;exitX=0.5;exitY=1;exitDx=0;exitDy=0;entryX=0.5;entryY=0;entryDx=0;entryDy=0;" parent="qAcYdrMk_56uutIM6bKp-80" target="qAcYdrMk_56uutIM6bKp-13" edge="1">
          <mxGeometry width="50" height="50" relative="1" as="geometry">
            <mxPoint x="150" y="540" as="sourcePoint" />
            <mxPoint x="155" y="388" as="targetPoint" />
          </mxGeometry>
        </mxCell>
        <mxCell id="qAcYdrMk_56uutIM6bKp-13" value="&#xa;" style="rhombus;fillColor=#FFFFFF;strokeColor=#000000;" parent="qAcYdrMk_56uutIM6bKp-80" vertex="1">
          <mxGeometry x="132.5" y="615" width="35" height="20" as="geometry" />
        </mxCell>
        <mxCell id="qAcYdrMk_56uutIM6bKp-15" value="" style="endArrow=classic;html=1;rounded=0;exitX=0.5;exitY=1;exitDx=0;exitDy=0;entryX=0.5;entryY=0;entryDx=0;entryDy=0;" parent="qAcYdrMk_56uutIM6bKp-80" source="qAcYdrMk_56uutIM6bKp-13" edge="1">
          <mxGeometry width="50" height="50" relative="1" as="geometry">
            <mxPoint x="152.25" y="473" as="sourcePoint" />
            <mxPoint x="150" y="665" as="targetPoint" />
          </mxGeometry>
        </mxCell>
        <mxCell id="qAcYdrMk_56uutIM6bKp-10" value="&lt;font style=&quot;font-size: 15px;&quot;&gt;[是]&lt;/font&gt;" style="whiteSpace=wrap;html=1;strokeColor=none;fillColor=none;" parent="qAcYdrMk_56uutIM6bKp-80" vertex="1">
          <mxGeometry x="185" y="605" width="40" height="20" as="geometry" />
        </mxCell>
        <mxCell id="qAcYdrMk_56uutIM6bKp-16" value="&lt;font style=&quot;font-size: 15px;&quot;&gt;[否]&lt;/font&gt;" style="whiteSpace=wrap;html=1;strokeColor=none;fillColor=none;" parent="qAcYdrMk_56uutIM6bKp-80" vertex="1">
          <mxGeometry x="94.5" y="635" width="57.25" height="20" as="geometry" />
        </mxCell>
        <mxCell id="qAcYdrMk_56uutIM6bKp-11" value="執行情緒分析" style="fontSize=20;" parent="qAcYdrMk_56uutIM6bKp-80" vertex="1">
          <mxGeometry x="70" y="665" width="170" height="50" as="geometry" />
        </mxCell>
        <mxCell id="KruCElbM7OjdMXR9dvU4-8" value="顯示分析結果" style="fontSize=20;" vertex="1" parent="qAcYdrMk_56uutIM6bKp-80">
          <mxGeometry x="70" y="740" width="170" height="50" as="geometry" />
        </mxCell>
        <mxCell id="KruCElbM7OjdMXR9dvU4-10" value="" style="endArrow=classic;html=1;rounded=0;exitX=0.5;exitY=1;exitDx=0;exitDy=0;" edge="1" parent="qAcYdrMk_56uutIM6bKp-80">
          <mxGeometry width="50" height="50" relative="1" as="geometry">
            <mxPoint x="150" y="715" as="sourcePoint" />
            <mxPoint x="150" y="740" as="targetPoint" />
          </mxGeometry>
        </mxCell>
        <mxCell id="kqFp3LxaSNEI2CS1_shT-3" value="儲存日記與結果" style="fontSize=20;" vertex="1" parent="qAcYdrMk_56uutIM6bKp-80">
          <mxGeometry x="75" y="840" width="150" height="50" as="geometry" />
        </mxCell>
        <mxCell id="R8Abtqu-zcnTd_QBsA_M-13" value="顯示請輸入日記&#xa;內容或情緒狀態" style="fontSize=20;" vertex="1" parent="qAcYdrMk_56uutIM6bKp-80">
          <mxGeometry x="250" y="600" width="140" height="50" as="geometry" />
        </mxCell>
        <mxCell id="R8Abtqu-zcnTd_QBsA_M-12" value="" style="edgeStyle=elbowEdgeStyle;elbow=horizontal;verticalAlign=bottom;endArrow=open;endSize=8;strokeColor=#000000;endFill=1;rounded=0;fillColor=#000000;exitX=1;exitY=0.5;exitDx=0;exitDy=0;entryX=0;entryY=0.5;entryDx=0;entryDy=0;" edge="1" parent="qAcYdrMk_56uutIM6bKp-80" source="qAcYdrMk_56uutIM6bKp-13" target="R8Abtqu-zcnTd_QBsA_M-13">
          <mxGeometry x="-440" y="-890" as="geometry">
            <mxPoint x="310" y="625" as="targetPoint" />
            <mxPoint x="180" y="635" as="sourcePoint" />
          </mxGeometry>
        </mxCell>
        <mxCell id="R8Abtqu-zcnTd_QBsA_M-18" value="" style="endArrow=classic;html=1;rounded=0;exitX=0.473;exitY=1.002;exitDx=0;exitDy=0;exitPerimeter=0;entryX=0.5;entryY=0;entryDx=0;entryDy=0;" edge="1" parent="qAcYdrMk_56uutIM6bKp-80" source="KruCElbM7OjdMXR9dvU4-8" target="kqFp3LxaSNEI2CS1_shT-3">
          <mxGeometry width="50" height="50" relative="1" as="geometry">
            <mxPoint x="149.38" y="800" as="sourcePoint" />
            <mxPoint x="149" y="840" as="targetPoint" />
          </mxGeometry>
        </mxCell>
        <mxCell id="kJbpv8XA1kqPkhbUWXzo-1" style="edgeStyle=orthogonalEdgeStyle;rounded=0;orthogonalLoop=1;jettySize=auto;html=1;exitX=0;exitY=0.5;exitDx=0;exitDy=0;entryX=1;entryY=0.5;entryDx=0;entryDy=0;" edge="1" parent="1" source="kqFp3LxaSNEI2CS1_shT-3" target="qAcYdrMk_56uutIM6bKp-88">
          <mxGeometry relative="1" as="geometry" />
        </mxCell>
        <mxCell id="kJbpv8XA1kqPkhbUWXzo-4" style="edgeStyle=orthogonalEdgeStyle;rounded=0;orthogonalLoop=1;jettySize=auto;html=1;entryX=1;entryY=0.5;entryDx=0;entryDy=0;" edge="1" parent="1" source="R8Abtqu-zcnTd_QBsA_M-13" target="qAcYdrMk_56uutIM6bKp-43">
          <mxGeometry relative="1" as="geometry">
            <Array as="points">
              <mxPoint x="860" y="1161" />
            </Array>
          </mxGeometry>
        </mxCell>
      </root>
    </mxGraphModel>
  </diagram>
  <diagram id="XaWEcqGVUeEleUQkVjFr" name="登入活動圖">
    <mxGraphModel dx="931" dy="1067" grid="1" gridSize="10" guides="1" tooltips="1" connect="1" arrows="1" fold="1" page="1" pageScale="1" pageWidth="827" pageHeight="1169" math="0" shadow="0">
      <root>
        <mxCell id="0" />
        <mxCell id="1" parent="0" />
        <mxCell id="_8p0gv5oE-PLBD2UJxlH-31" value="" style="ellipse;shape=startState;fillColor=#000000;strokeColor=#000000;" vertex="1" parent="1">
          <mxGeometry x="230" y="444" width="30" height="30" as="geometry" />
        </mxCell>
        <mxCell id="_8p0gv5oE-PLBD2UJxlH-32" value="" style="edgeStyle=elbowEdgeStyle;elbow=horizontal;verticalAlign=bottom;endArrow=open;endSize=8;strokeColor=#000000;endFill=1;rounded=0;fillColor=#000000;" edge="1" parent="1" source="_8p0gv5oE-PLBD2UJxlH-31">
          <mxGeometry x="100" y="40" as="geometry">
            <mxPoint x="245.64285714285734" y="514" as="targetPoint" />
          </mxGeometry>
        </mxCell>
        <mxCell id="_8p0gv5oE-PLBD2UJxlH-34" value="" style="edgeStyle=orthogonalEdgeStyle;rounded=0;orthogonalLoop=1;jettySize=auto;html=1;entryX=0.5;entryY=0;entryDx=0;entryDy=0;" edge="1" parent="1" target="_8p0gv5oE-PLBD2UJxlH-39">
          <mxGeometry relative="1" as="geometry">
            <mxPoint x="244.75" y="566" as="sourcePoint" />
            <mxPoint x="244.75" y="616" as="targetPoint" />
          </mxGeometry>
        </mxCell>
        <mxCell id="_8p0gv5oE-PLBD2UJxlH-36" value="" style="endArrow=open;strokeColor=#000000;endFill=1;rounded=0" edge="1" parent="1" target="_8p0gv5oE-PLBD2UJxlH-37">
          <mxGeometry relative="1" as="geometry">
            <mxPoint x="245" y="556" as="sourcePoint" />
            <mxPoint x="244.75" y="616" as="targetPoint" />
          </mxGeometry>
        </mxCell>
        <mxCell id="_8p0gv5oE-PLBD2UJxlH-38" value="使用者" style="swimlane;whiteSpace=wrap;startSize=30;fontSize=20;" vertex="1" parent="1">
          <mxGeometry x="130" y="410" width="270" height="690" as="geometry" />
        </mxCell>
        <mxCell id="_8p0gv5oE-PLBD2UJxlH-39" value="輸入Email與密碼" style="fontSize=20;" vertex="1" parent="_8p0gv5oE-PLBD2UJxlH-38">
          <mxGeometry x="25" y="220" width="180" height="50" as="geometry" />
        </mxCell>
        <mxCell id="_8p0gv5oE-PLBD2UJxlH-37" value="點選登入並開始" style="fontSize=20;" vertex="1" parent="_8p0gv5oE-PLBD2UJxlH-38">
          <mxGeometry x="35" y="110" width="160" height="50" as="geometry" />
        </mxCell>
        <mxCell id="1V_9ycoMxlUshRL5_7Cy-17" value="" style="endArrow=classic;html=1;rounded=0;exitX=0.5;exitY=1;exitDx=0;exitDy=0;entryX=0.5;entryY=0;entryDx=0;entryDy=0;" edge="1" parent="_8p0gv5oE-PLBD2UJxlH-38" target="1V_9ycoMxlUshRL5_7Cy-18">
          <mxGeometry width="50" height="50" relative="1" as="geometry">
            <mxPoint x="114.41000000000003" y="270" as="sourcePoint" />
            <mxPoint x="114.91000000000003" y="345" as="targetPoint" />
          </mxGeometry>
        </mxCell>
        <mxCell id="1V_9ycoMxlUshRL5_7Cy-18" value="點選登入" style="fontSize=20;" vertex="1" parent="_8p0gv5oE-PLBD2UJxlH-38">
          <mxGeometry x="15" y="330" width="200" height="50" as="geometry" />
        </mxCell>
        <mxCell id="_8p0gv5oE-PLBD2UJxlH-44" value="系統" style="swimlane;whiteSpace=wrap;startSize=30;fontSize=20;" vertex="1" parent="1">
          <mxGeometry x="400" y="410" width="520" height="690" as="geometry" />
        </mxCell>
        <mxCell id="_8p0gv5oE-PLBD2UJxlH-48" value="" style="endArrow=classic;html=1;rounded=0;exitX=0.5;exitY=1;exitDx=0;exitDy=0;" edge="1" parent="_8p0gv5oE-PLBD2UJxlH-44" source="1V_9ycoMxlUshRL5_7Cy-2">
          <mxGeometry width="50" height="50" relative="1" as="geometry">
            <mxPoint x="150.5" y="400" as="sourcePoint" />
            <mxPoint x="140" y="460" as="targetPoint" />
          </mxGeometry>
        </mxCell>
        <mxCell id="_8p0gv5oE-PLBD2UJxlH-49" value="&#xa;" style="rhombus;fillColor=#FFFFFF;strokeColor=#000000;" vertex="1" parent="_8p0gv5oE-PLBD2UJxlH-44">
          <mxGeometry x="123" y="460" width="35" height="25" as="geometry" />
        </mxCell>
        <mxCell id="_8p0gv5oE-PLBD2UJxlH-50" value="" style="endArrow=classic;html=1;rounded=0;exitX=0.5;exitY=1;exitDx=0;exitDy=0;entryX=0.5;entryY=0;entryDx=0;entryDy=0;" edge="1" parent="_8p0gv5oE-PLBD2UJxlH-44" source="_8p0gv5oE-PLBD2UJxlH-49" target="_8p0gv5oE-PLBD2UJxlH-53">
          <mxGeometry width="50" height="50" relative="1" as="geometry">
            <mxPoint x="152.75" y="333" as="sourcePoint" />
            <mxPoint x="141" y="525" as="targetPoint" />
          </mxGeometry>
        </mxCell>
        <mxCell id="_8p0gv5oE-PLBD2UJxlH-51" value="&lt;font style=&quot;font-size: 15px;&quot;&gt;[是]&lt;/font&gt;" style="whiteSpace=wrap;html=1;strokeColor=none;fillColor=none;" vertex="1" parent="_8p0gv5oE-PLBD2UJxlH-44">
          <mxGeometry x="100" y="485" width="40" height="20" as="geometry" />
        </mxCell>
        <mxCell id="_8p0gv5oE-PLBD2UJxlH-52" value="&lt;font style=&quot;font-size: 15px;&quot;&gt;[否]&lt;/font&gt;" style="whiteSpace=wrap;html=1;strokeColor=none;fillColor=none;" vertex="1" parent="_8p0gv5oE-PLBD2UJxlH-44">
          <mxGeometry x="168.25" y="450" width="57.25" height="20" as="geometry" />
        </mxCell>
        <mxCell id="_8p0gv5oE-PLBD2UJxlH-53" value="顯示首頁" style="fontSize=20;" vertex="1" parent="_8p0gv5oE-PLBD2UJxlH-44">
          <mxGeometry x="55.5" y="530" width="170" height="50" as="geometry" />
        </mxCell>
        <mxCell id="1V_9ycoMxlUshRL5_7Cy-2" value="檢查Email與密碼" style="fontSize=20;" vertex="1" parent="_8p0gv5oE-PLBD2UJxlH-44">
          <mxGeometry x="40" y="330" width="200" height="50" as="geometry" />
        </mxCell>
        <mxCell id="1V_9ycoMxlUshRL5_7Cy-20" value="顯示帳號錯誤或&#xa;密碼不存在" style="fontSize=20;" vertex="1" parent="_8p0gv5oE-PLBD2UJxlH-44">
          <mxGeometry x="240" y="447.5" width="200" height="50" as="geometry" />
        </mxCell>
        <mxCell id="1V_9ycoMxlUshRL5_7Cy-24" value="" style="endArrow=classic;html=1;rounded=0;exitX=1;exitY=0.5;exitDx=0;exitDy=0;entryX=0;entryY=0.5;entryDx=0;entryDy=0;" edge="1" parent="_8p0gv5oE-PLBD2UJxlH-44" source="_8p0gv5oE-PLBD2UJxlH-49" target="1V_9ycoMxlUshRL5_7Cy-20">
          <mxGeometry width="50" height="50" relative="1" as="geometry">
            <mxPoint x="151" y="495" as="sourcePoint" />
            <mxPoint x="151" y="535" as="targetPoint" />
          </mxGeometry>
        </mxCell>
        <mxCell id="_8p0gv5oE-PLBD2UJxlH-41" value="" style="ellipse;html=1;shape=endState;fillColor=#000000;strokeColor=#000000;" vertex="1" parent="_8p0gv5oE-PLBD2UJxlH-44">
          <mxGeometry x="125.5" y="650" width="30" height="30" as="geometry" />
        </mxCell>
        <mxCell id="pghSWNV-5Mb5upVh3oGa-1" value="" style="endArrow=classic;html=1;rounded=0;exitX=0.5;exitY=1;exitDx=0;exitDy=0;entryX=0.5;entryY=0;entryDx=0;entryDy=0;" edge="1" parent="_8p0gv5oE-PLBD2UJxlH-44" source="_8p0gv5oE-PLBD2UJxlH-53" target="_8p0gv5oE-PLBD2UJxlH-41">
          <mxGeometry width="50" height="50" relative="1" as="geometry">
            <mxPoint x="142.64" y="600" as="sourcePoint" />
            <mxPoint x="142.64" y="645" as="targetPoint" />
          </mxGeometry>
        </mxCell>
        <mxCell id="1V_9ycoMxlUshRL5_7Cy-3" value="" style="edgeStyle=elbowEdgeStyle;elbow=horizontal;verticalAlign=bottom;endArrow=open;endSize=8;strokeColor=#000000;endFill=1;rounded=0;fillColor=#000000;exitX=1;exitY=0.5;exitDx=0;exitDy=0;entryX=0;entryY=0.5;entryDx=0;entryDy=0;" edge="1" parent="1" source="1V_9ycoMxlUshRL5_7Cy-18" target="1V_9ycoMxlUshRL5_7Cy-2">
          <mxGeometry x="100" y="40" as="geometry">
            <mxPoint x="460" y="555" as="targetPoint" />
            <mxPoint x="335" y="555" as="sourcePoint" />
          </mxGeometry>
        </mxCell>
        <mxCell id="1V_9ycoMxlUshRL5_7Cy-25" value="" style="endArrow=classic;html=1;rounded=0;exitX=1;exitY=0.5;exitDx=0;exitDy=0;entryX=1;entryY=0.5;entryDx=0;entryDy=0;" edge="1" parent="1" source="1V_9ycoMxlUshRL5_7Cy-20" target="_8p0gv5oE-PLBD2UJxlH-39">
          <mxGeometry width="50" height="50" relative="1" as="geometry">
            <mxPoint x="550" y="800" as="sourcePoint" />
            <mxPoint x="550" y="880" as="targetPoint" />
            <Array as="points">
              <mxPoint x="890" y="883" />
              <mxPoint x="890" y="655" />
            </Array>
          </mxGeometry>
        </mxCell>
      </root>
    </mxGraphModel>
  </diagram>
  <diagram id="Qkq9pe2DDC6BN5qTmQI-" name="查詢歷史日記活動圖">
    <mxGraphModel dx="2098" dy="1084" grid="1" gridSize="10" guides="1" tooltips="1" connect="1" arrows="1" fold="1" page="1" pageScale="1" pageWidth="827" pageHeight="1169" math="0" shadow="0">
      <root>
        <mxCell id="0" />
        <mxCell id="1" parent="0" />
        <mxCell id="VAhCaEVph85gmRJZTaxG-1" value="" style="ellipse;shape=startState;fillColor=#000000;strokeColor=#000000;" vertex="1" parent="1">
          <mxGeometry x="230" y="444" width="30" height="30" as="geometry" />
        </mxCell>
        <mxCell id="VAhCaEVph85gmRJZTaxG-2" value="" style="edgeStyle=elbowEdgeStyle;elbow=horizontal;verticalAlign=bottom;endArrow=open;endSize=8;strokeColor=#000000;endFill=1;rounded=0;fillColor=#000000;" edge="1" parent="1" source="VAhCaEVph85gmRJZTaxG-1">
          <mxGeometry x="100" y="40" as="geometry">
            <mxPoint x="245.64285714285734" y="514" as="targetPoint" />
          </mxGeometry>
        </mxCell>
        <mxCell id="VAhCaEVph85gmRJZTaxG-3" value="" style="endArrow=open;strokeColor=#000000;endFill=1;rounded=0" edge="1" parent="1" source="VAhCaEVph85gmRJZTaxG-7">
          <mxGeometry relative="1" as="geometry">
            <mxPoint x="245" y="556" as="sourcePoint" />
            <mxPoint x="244.75" y="616" as="targetPoint" />
          </mxGeometry>
        </mxCell>
        <mxCell id="VAhCaEVph85gmRJZTaxG-4" value="" style="edgeStyle=orthogonalEdgeStyle;rounded=0;orthogonalLoop=1;jettySize=auto;html=1;" edge="1" parent="1">
          <mxGeometry relative="1" as="geometry">
            <mxPoint x="244.75" y="566" as="sourcePoint" />
            <mxPoint x="244.75" y="616" as="targetPoint" />
          </mxGeometry>
        </mxCell>
        <mxCell id="VAhCaEVph85gmRJZTaxG-5" value="" style="edgeStyle=elbowEdgeStyle;elbow=horizontal;verticalAlign=bottom;endArrow=open;endSize=8;strokeColor=#000000;endFill=1;rounded=0;fillColor=#000000;exitX=1;exitY=0.5;exitDx=0;exitDy=0;entryX=0;entryY=0.5;entryDx=0;entryDy=0;" edge="1" parent="1" source="VAhCaEVph85gmRJZTaxG-9" target="VAhCaEVph85gmRJZTaxG-15">
          <mxGeometry x="100" y="40" as="geometry">
            <mxPoint x="397.75" y="534" as="targetPoint" />
            <mxPoint x="299.75" y="641" as="sourcePoint" />
          </mxGeometry>
        </mxCell>
        <mxCell id="VAhCaEVph85gmRJZTaxG-6" value="" style="endArrow=open;strokeColor=#000000;endFill=1;rounded=0" edge="1" parent="1" target="VAhCaEVph85gmRJZTaxG-7">
          <mxGeometry relative="1" as="geometry">
            <mxPoint x="245" y="556" as="sourcePoint" />
            <mxPoint x="244.75" y="616" as="targetPoint" />
          </mxGeometry>
        </mxCell>
        <mxCell id="VAhCaEVph85gmRJZTaxG-7" value="點選註冊" style="fontSize=20;" vertex="1" parent="1">
          <mxGeometry x="190" y="515" width="110" height="50" as="geometry" />
        </mxCell>
        <mxCell id="VAhCaEVph85gmRJZTaxG-8" value="使用者" style="swimlane;whiteSpace=wrap;startSize=30;fontSize=20;" vertex="1" parent="1">
          <mxGeometry x="130" y="410" width="270" height="890" as="geometry" />
        </mxCell>
        <mxCell id="VAhCaEVph85gmRJZTaxG-9" value="按下提交" style="fontSize=20;" vertex="1" parent="VAhCaEVph85gmRJZTaxG-8">
          <mxGeometry x="50" y="306" width="130" height="50" as="geometry" />
        </mxCell>
        <mxCell id="VAhCaEVph85gmRJZTaxG-10" value="" style="edgeStyle=orthogonalEdgeStyle;rounded=0;orthogonalLoop=1;jettySize=auto;html=1;" edge="1" parent="VAhCaEVph85gmRJZTaxG-8">
          <mxGeometry relative="1" as="geometry">
            <mxPoint x="114.70000000000002" y="256" as="sourcePoint" />
            <mxPoint x="114.70000000000002" y="306" as="targetPoint" />
          </mxGeometry>
        </mxCell>
        <mxCell id="VAhCaEVph85gmRJZTaxG-11" value="" style="ellipse;html=1;shape=endState;fillColor=#000000;strokeColor=#000000;" vertex="1" parent="VAhCaEVph85gmRJZTaxG-8">
          <mxGeometry x="100" y="830" width="30" height="30" as="geometry" />
        </mxCell>
        <mxCell id="VAhCaEVph85gmRJZTaxG-12" value="輸入日記內容" style="fontSize=20;" vertex="1" parent="VAhCaEVph85gmRJZTaxG-8">
          <mxGeometry x="50" y="206" width="130" height="50" as="geometry" />
        </mxCell>
        <mxCell id="VAhCaEVph85gmRJZTaxG-13" value="點選儲存日記" style="fontSize=20;" vertex="1" parent="VAhCaEVph85gmRJZTaxG-8">
          <mxGeometry x="40" y="640" width="150" height="50" as="geometry" />
        </mxCell>
        <mxCell id="VAhCaEVph85gmRJZTaxG-14" value="系統" style="swimlane;whiteSpace=wrap;startSize=30;fontSize=20;" vertex="1" parent="1">
          <mxGeometry x="400" y="410" width="280" height="890" as="geometry" />
        </mxCell>
        <mxCell id="VAhCaEVph85gmRJZTaxG-15" value="接收日記文字" style="fontSize=20;" vertex="1" parent="VAhCaEVph85gmRJZTaxG-14">
          <mxGeometry x="65.5" y="306" width="140" height="50" as="geometry" />
        </mxCell>
        <mxCell id="VAhCaEVph85gmRJZTaxG-16" value="是否為空" style="fontSize=20;" vertex="1" parent="VAhCaEVph85gmRJZTaxG-14">
          <mxGeometry x="65.5" y="390" width="140" height="50" as="geometry" />
        </mxCell>
        <mxCell id="VAhCaEVph85gmRJZTaxG-17" value="" style="edgeStyle=orthogonalEdgeStyle;rounded=0;orthogonalLoop=1;jettySize=auto;html=1;exitX=0.5;exitY=1;exitDx=0;exitDy=0;entryX=0.5;entryY=0;entryDx=0;entryDy=0;" edge="1" parent="VAhCaEVph85gmRJZTaxG-14" source="VAhCaEVph85gmRJZTaxG-15" target="VAhCaEVph85gmRJZTaxG-16">
          <mxGeometry relative="1" as="geometry">
            <mxPoint x="-79.69999999999999" y="266" as="sourcePoint" />
            <mxPoint x="-79.69999999999999" y="316" as="targetPoint" />
          </mxGeometry>
        </mxCell>
        <mxCell id="VAhCaEVph85gmRJZTaxG-18" value="" style="endArrow=classic;html=1;rounded=0;exitX=0.5;exitY=1;exitDx=0;exitDy=0;entryX=0.5;entryY=0;entryDx=0;entryDy=0;" edge="1" parent="VAhCaEVph85gmRJZTaxG-14" target="VAhCaEVph85gmRJZTaxG-19">
          <mxGeometry width="50" height="50" relative="1" as="geometry">
            <mxPoint x="135.5" y="440" as="sourcePoint" />
            <mxPoint x="140.5" y="288" as="targetPoint" />
          </mxGeometry>
        </mxCell>
        <mxCell id="VAhCaEVph85gmRJZTaxG-19" value="&#xa;" style="rhombus;fillColor=#FFFFFF;strokeColor=#000000;" vertex="1" parent="VAhCaEVph85gmRJZTaxG-14">
          <mxGeometry x="118" y="515" width="35" height="20" as="geometry" />
        </mxCell>
        <mxCell id="VAhCaEVph85gmRJZTaxG-20" value="" style="endArrow=classic;html=1;rounded=0;exitX=0.5;exitY=1;exitDx=0;exitDy=0;entryX=0.5;entryY=0;entryDx=0;entryDy=0;" edge="1" parent="VAhCaEVph85gmRJZTaxG-14" source="VAhCaEVph85gmRJZTaxG-19">
          <mxGeometry width="50" height="50" relative="1" as="geometry">
            <mxPoint x="137.75" y="373" as="sourcePoint" />
            <mxPoint x="135.5" y="565" as="targetPoint" />
          </mxGeometry>
        </mxCell>
        <mxCell id="VAhCaEVph85gmRJZTaxG-21" value="&lt;font style=&quot;font-size: 15px;&quot;&gt;[是]&lt;/font&gt;" style="whiteSpace=wrap;html=1;strokeColor=none;fillColor=none;" vertex="1" parent="VAhCaEVph85gmRJZTaxG-14">
          <mxGeometry x="170.5" y="505" width="40" height="20" as="geometry" />
        </mxCell>
        <mxCell id="VAhCaEVph85gmRJZTaxG-22" value="&lt;font style=&quot;font-size: 15px;&quot;&gt;[不是]&lt;/font&gt;" style="whiteSpace=wrap;html=1;strokeColor=none;fillColor=none;" vertex="1" parent="VAhCaEVph85gmRJZTaxG-14">
          <mxGeometry x="135.5" y="535" width="57.25" height="20" as="geometry" />
        </mxCell>
        <mxCell id="VAhCaEVph85gmRJZTaxG-23" value="執行情緒分析" style="fontSize=20;" vertex="1" parent="VAhCaEVph85gmRJZTaxG-14">
          <mxGeometry x="55.5" y="565" width="170" height="50" as="geometry" />
        </mxCell>
        <mxCell id="VAhCaEVph85gmRJZTaxG-24" value="顯示分析結果" style="fontSize=20;" vertex="1" parent="VAhCaEVph85gmRJZTaxG-14">
          <mxGeometry x="55.5" y="640" width="170" height="50" as="geometry" />
        </mxCell>
        <mxCell id="VAhCaEVph85gmRJZTaxG-25" value="" style="endArrow=classic;html=1;rounded=0;exitX=0.5;exitY=1;exitDx=0;exitDy=0;" edge="1" parent="VAhCaEVph85gmRJZTaxG-14">
          <mxGeometry width="50" height="50" relative="1" as="geometry">
            <mxPoint x="135.5" y="615" as="sourcePoint" />
            <mxPoint x="135.5" y="640" as="targetPoint" />
          </mxGeometry>
        </mxCell>
        <mxCell id="VAhCaEVph85gmRJZTaxG-26" value="儲存日記與結果" style="fontSize=20;" vertex="1" parent="VAhCaEVph85gmRJZTaxG-14">
          <mxGeometry x="55.5" y="722" width="150" height="50" as="geometry" />
        </mxCell>
        <mxCell id="VAhCaEVph85gmRJZTaxG-27" value="" style="endArrow=classic;html=1;rounded=0;exitX=1;exitY=0.5;exitDx=0;exitDy=0;entryX=1;entryY=0.5;entryDx=0;entryDy=0;" edge="1" parent="1" source="VAhCaEVph85gmRJZTaxG-19" target="VAhCaEVph85gmRJZTaxG-12">
          <mxGeometry width="50" height="50" relative="1" as="geometry">
            <mxPoint x="488.25" y="716" as="sourcePoint" />
            <mxPoint x="575" y="935" as="targetPoint" />
            <Array as="points">
              <mxPoint x="640" y="935" />
              <mxPoint x="640" y="641" />
            </Array>
          </mxGeometry>
        </mxCell>
        <mxCell id="VAhCaEVph85gmRJZTaxG-28" value="" style="endArrow=classic;html=1;rounded=0;exitX=0;exitY=0.5;exitDx=0;exitDy=0;entryX=1;entryY=0.5;entryDx=0;entryDy=0;" edge="1" parent="1" source="VAhCaEVph85gmRJZTaxG-24" target="VAhCaEVph85gmRJZTaxG-13">
          <mxGeometry width="50" height="50" relative="1" as="geometry">
            <mxPoint x="455.5" y="1080.0000000000002" as="sourcePoint" />
            <mxPoint x="370" y="1079" as="targetPoint" />
          </mxGeometry>
        </mxCell>
        <mxCell id="VAhCaEVph85gmRJZTaxG-29" value="" style="endArrow=classic;html=1;rounded=0;exitX=0.467;exitY=1;exitDx=0;exitDy=0;entryX=0;entryY=0.5;entryDx=0;entryDy=0;exitPerimeter=0;" edge="1" parent="1" source="VAhCaEVph85gmRJZTaxG-13" target="VAhCaEVph85gmRJZTaxG-26">
          <mxGeometry width="50" height="50" relative="1" as="geometry">
            <mxPoint x="466" y="1085" as="sourcePoint" />
            <mxPoint x="330" y="1085" as="targetPoint" />
            <Array as="points">
              <mxPoint x="240" y="1157" />
            </Array>
          </mxGeometry>
        </mxCell>
        <mxCell id="VAhCaEVph85gmRJZTaxG-30" value="" style="endArrow=classic;html=1;rounded=0;exitX=0.5;exitY=1;exitDx=0;exitDy=0;entryX=1;entryY=0.5;entryDx=0;entryDy=0;" edge="1" parent="1" source="VAhCaEVph85gmRJZTaxG-26" target="VAhCaEVph85gmRJZTaxG-11">
          <mxGeometry width="50" height="50" relative="1" as="geometry">
            <mxPoint x="250" y="1110" as="sourcePoint" />
            <mxPoint x="466" y="1167" as="targetPoint" />
            <Array as="points">
              <mxPoint x="530" y="1255" />
            </Array>
          </mxGeometry>
        </mxCell>
      </root>
    </mxGraphModel>
  </diagram>
  <diagram id="xF-0lb_RBf0tRStXi0qm" name="註冊活動圖">
    <mxGraphModel dx="512" dy="587" grid="1" gridSize="10" guides="1" tooltips="1" connect="1" arrows="1" fold="1" page="1" pageScale="1" pageWidth="827" pageHeight="1169" math="0" shadow="0">
      <root>
        <mxCell id="0" />
        <mxCell id="1" parent="0" />
      </root>
    </mxGraphModel>
  </diagram>
</mxfile>
